{
  "source": "C:\\Users\\mbnyau\\Desktop\\stuff\\MIUN\\quantitative_research\\video_compression\\videos\\UVG\\Jockey_1920x1080_120fps_420_8bit_YUV.y4m",
  "output": "C:\\Users\\mbnyau\\Desktop\\stuff\\MIUN\\quantitative_research\\video_compression\\compressed_videos\\UVG\\hevc\\2\\Jockey_1920x1080_120fps_420_8bit_YUV_hevc.mp4",
  "codec": "hevc",
  "ok": "[yuv4mpegpipe @ 000002c1a5926a40] Stream #0: not enough frames to estimate rate; consider increasing probesize\nInput #0, yuv4mpegpipe, from 'C:\\Users\\mbnyau\\Desktop\\stuff\\MIUN\\quantitative_research\\video_compression\\videos\\UVG\\Jockey_1920x1080_120fps_420_8bit_YUV.y4m':\n  Duration: 00:00:05.00, start: 0.000000, bitrate: 2985989 kb/s\n  Stream #0:0: Video: rawvideo (I420 / 0x30323449), yuv420p(progressive), 1920x1080, 120 fps, 120 tbr, 120 tbn\n[out#0/mp4 @ 000002c1a5927a80] Codec AVOption b:a (set bitrate (in bits/s)) has not been used for any stream. The most likely reason is either wrong type (e.g. a video option with no video streams) or that it is a private option of some decoder which was not actually used for any stream.\nStream mapping:\n  Stream #0:0 -> #0:0 (rawvideo (native) -> hevc (libx265))\nPress [q] to stop, [?] for help\n[libx265 @ 000002c1a592d600] Unknown option: \"aq-mode.\nx265 [info]: HEVC encoder version 4.1+190-8f11c33ac\nx265 [info]: build info [Windows][GCC 15.1.0][64 bit] 10bit\nx265 [info]: using cpu capabilities: MMX2 SSE2Fast LZCNT SSSE3 SSE4.2 AVX FMA3 BMI2 AVX2\nx265 [info]: Main 10 profile, Level-5 (Main tier)\nx265 [info]: Thread pool created using 12 threads\nx265 [info]: Slices                              : 1\nx265 [info]: frame threads / pool features       : 3 / wpp(17 rows)\nx265 [info]: Coding QT: max CU size, min CU size : 64 / 8\nx265 [info]: Residual QT: max TU size, max depth : 32 / 1 inter / 1 intra\nx265 [info]: ME / range / subpel / merge         : star / 57 / 3 / 3\nx265 [info]: Keyframe min / max / scenecut / bias  : 25 / 250 / 40 / 5.00 \nx265 [info]: Lookahead / bframes / badapt        : 25 / 4 / 2\nx265 [info]: b-pyramid / weightp / weightb       : 1 / 1 / 0\nx265 [info]: References / ref-limit  cu / depth  : 4 / on / on\nx265 [info]: AQ: mode / str / qg-size / cu-tree  : 2 / 1.0 / 32 / 1\nx265 [info]: Rate Control / qCompress            : ABR-2000 kbps / 0.60\nx265 [info]: VBV/HRD buffer / max-rate / init    : 2000 / 2000 / 0.750\nx265 [info]: tools: rect limit-modes rd=4 psy-rd=2.00 rdoq=2 psy-rdoq=1.00\nx265 [info]: tools: rskip mode=1 signhide tmvp strong-intra-smoothing lslices=4\nx265 [info]: tools: deblock sao dhdr10-info\nOutput #0, mp4, to 'C:\\Users\\mbnyau\\Desktop\\stuff\\MIUN\\quantitative_research\\video_compression\\compressed_videos\\UVG\\hevc\\2\\Jockey_1920x1080_120fps_420_8bit_YUV_hevc.mp4':\n  Metadata:\n    encoder         : Lavf62.3.100\n  Stream #0:0: Video: hevc (hev1 / 0x31766568), yuv420p10le(tv, progressive), 1920x1080, q=2-31, 2000 kb/s, 120 fps, 15360 tbn\n    Metadata:\n      encoder         : Lavc62.11.100 libx265\n    Side data:\n      cpb: bitrate max/min/avg: 2000000/0/2000000 buffer size: 2000000 vbv_delay: N/A\nframe=    0 fps=0.0 q=0.0 size=       0KiB time=N/A bitrate=N/A speed=N/A elapsed=0:00:00.52    \nframe=    8 fps=7.8 q=48.7 size=       0KiB time=00:00:00.05 bitrate=   7.0kbits/s speed=0.0487x elapsed=0:00:01.02    \nframe=   16 fps= 10 q=46.9 size=       0KiB time=00:00:00.11 bitrate=   3.0kbits/s speed=0.0756x elapsed=0:00:01.54    \nframe=   25 fps= 12 q=38.0 size=       0KiB time=00:00:00.19 bitrate=   1.8kbits/s speed=0.093x elapsed=0:00:02.06    \nframe=   33 fps= 13 q=43.3 size=       0KiB time=00:00:00.25 bitrate=   1.4kbits/s speed= 0.1x elapsed=0:00:02.57    \nframe=   41 fps= 13 q=42.7 size=       0KiB time=00:00:00.32 bitrate=   1.1kbits/s speed=0.105x elapsed=0:00:03.09    \nframe=   48 fps= 13 q=36.5 size=       0KiB time=00:00:00.38 bitrate=   0.9kbits/s speed=0.106x elapsed=0:00:03.61    \nframe=   56 fps= 14 q=42.2 size=       0KiB time=00:00:00.45 bitrate=   0.8kbits/s speed=0.109x elapsed=0:00:04.12    \nframe=   64 fps= 14 q=41.7 size=       0KiB time=00:00:00.51 bitrate=   0.7kbits/s speed=0.111x elapsed=0:00:04.64    \nframe=   72 fps= 14 q=36.7 size=       0KiB time=00:00:00.58 bitrate=   0.6kbits/s speed=0.113x elapsed=0:00:05.16    \nframe=   80 fps= 14 q=41.6 size=       0KiB time=00:00:00.65 bitrate=   0.5kbits/s speed=0.114x elapsed=0:00:05.67    \nframe=   88 fps= 14 q=41.1 size=       0KiB time=00:00:00.71 bitrate=   0.5kbits/s speed=0.116x elapsed=0:00:06.19    \nframe=   95 fps= 14 q=41.2 size=       0KiB time=00:00:00.77 bitrate=   0.5kbits/s speed=0.116x elapsed=0:00:06.69    \nframe=  104 fps= 14 q=43.6 size=       0KiB time=00:00:00.85 bitrate=   0.4kbits/s speed=0.118x elapsed=0:00:07.21    \nframe=  111 fps= 14 q=37.8 size=       0KiB time=00:00:00.90 bitrate=   0.4kbits/s speed=0.117x elapsed=0:00:07.73    \nframe=  119 fps= 14 q=43.6 size=       0KiB time=00:00:00.97 bitrate=   0.4kbits/s speed=0.118x elapsed=0:00:08.24    \nframe=  124 fps= 14 q=43.6 size=       0KiB time=00:00:01.01 bitrate=   0.3kbits/s speed=0.116x elapsed=0:00:08.76    \nframe=  131 fps= 14 q=37.9 size=       0KiB time=00:00:01.07 bitrate=   0.3kbits/s speed=0.116x elapsed=0:00:09.28    \nframe=  136 fps= 14 q=42.7 size=     256KiB time=00:00:01.11 bitrate=1878.4kbits/s speed=0.114x elapsed=0:00:09.79    \nframe=  143 fps= 14 q=42.1 size=     256KiB time=00:00:01.17 bitrate=1785.1kbits/s speed=0.114x elapsed=0:00:10.31    \nframe=  148 fps= 14 q=43.8 size=     256KiB time=00:00:01.21 bitrate=1724.0kbits/s speed=0.112x elapsed=0:00:10.82    \nframe=  155 fps= 14 q=38.1 size=     256KiB time=00:00:01.27 bitrate=1645.1kbits/s speed=0.112x elapsed=0:00:11.34    \nframe=  160 fps= 13 q=43.8 size=     256KiB time=00:00:01.31 bitrate=1593.0kbits/s speed=0.111x elapsed=0:00:11.86    \nframe=  167 fps= 13 q=41.9 size=     256KiB time=00:00:01.37 bitrate=1525.5kbits/s speed=0.111x elapsed=0:00:12.37    \nframe=  173 fps= 13 q=44.7 size=     256KiB time=00:00:01.42 bitrate=1471.9kbits/s speed=0.111x elapsed=0:00:12.89    \nframe=  179 fps= 13 q=44.6 size=     256KiB time=00:00:01.47 bitrate=1422.0kbits/s speed=0.11x elapsed=0:00:13.40    \nframe=  185 fps= 13 q=38.6 size=     256KiB time=00:00:01.52 bitrate=1375.4kbits/s speed=0.11x elapsed=0:00:13.92    \nframe=  191 fps= 13 q=44.6 size=     256KiB time=00:00:01.57 bitrate=1331.7kbits/s speed=0.109x elapsed=0:00:14.44    \nframe=  196 fps= 13 q=44.6 size=     256KiB time=00:00:01.61 bitrate=1297.4kbits/s speed=0.108x elapsed=0:00:14.95    \nframe=  202 fps= 13 q=44.6 size=     256KiB time=00:00:01.66 bitrate=1258.5kbits/s speed=0.108x elapsed=0:00:15.47    \nframe=  208 fps= 13 q=44.6 size=     256KiB time=00:00:01.71 bitrate=1221.8kbits/s speed=0.107x elapsed=0:00:15.98    \nframe=  214 fps= 13 q=44.8 size=     256KiB time=00:00:01.76 bitrate=1187.3kbits/s speed=0.107x elapsed=0:00:16.50    \nframe=  219 fps= 13 q=42.7 size=     256KiB time=00:00:01.80 bitrate=1159.9kbits/s speed=0.106x elapsed=0:00:17.01    \nframe=  225 fps= 13 q=44.6 size=     256KiB time=00:00:01.85 bitrate=1128.7kbits/s speed=0.106x elapsed=0:00:17.53    \nframe=  231 fps= 13 q=44.6 size=     256KiB time=00:00:01.90 bitrate=1099.1kbits/s speed=0.106x elapsed=0:00:18.04    \nframe=  237 fps= 13 q=44.6 size=     256KiB time=00:00:01.95 bitrate=1071.1kbits/s speed=0.106x elapsed=0:00:18.56    \nframe=  244 fps= 13 q=39.3 size=     256KiB time=00:00:02.01 bitrate=1040.1kbits/s speed=0.106x elapsed=0:00:19.07    \nframe=  253 fps= 13 q=42.2 size=     512KiB time=00:00:02.09 bitrate=2005.4kbits/s speed=0.107x elapsed=0:00:19.60    \nframe=  261 fps= 13 q=44.6 size=     512KiB time=00:00:02.15 bitrate=1943.5kbits/s speed=0.107x elapsed=0:00:20.11    \nframe=  268 fps= 13 q=39.3 size=     512KiB time=00:00:02.21 bitrate=1892.3kbits/s speed=0.107x elapsed=0:00:20.63    \nframe=  274 fps= 13 q=44.1 size=     512KiB time=00:00:02.26 bitrate=1850.6kbits/s speed=0.107x elapsed=0:00:21.14    \nframe=  281 fps= 13 q=39.5 size=     512KiB time=00:00:02.32 bitrate=1804.2kbits/s speed=0.107x elapsed=0:00:21.66    \nframe=  286 fps= 13 q=42.1 size=     512KiB time=00:00:02.36 bitrate=1772.4kbits/s speed=0.107x elapsed=0:00:22.17    \nframe=  291 fps= 13 q=44.7 size=     512KiB time=00:00:02.40 bitrate=1741.7kbits/s speed=0.106x elapsed=0:00:22.69    \nframe=  296 fps= 13 q=46.4 size=     512KiB time=00:00:02.45 bitrate=1712.1kbits/s speed=0.106x elapsed=0:00:23.20    \nframe=  302 fps= 13 q=47.6 size=     512KiB time=00:00:02.50 bitrate=1677.9kbits/s speed=0.105x elapsed=0:00:23.72    \nframe=  307 fps= 13 q=48.1 size=     512KiB time=00:00:02.54 bitrate=1650.4kbits/s speed=0.105x elapsed=0:00:24.24    \nframe=  312 fps= 13 q=50.2 size=     512KiB time=00:00:02.58 bitrate=1623.7kbits/s speed=0.104x elapsed=0:00:24.75    \nframe=  317 fps= 13 q=50.4 size=     512KiB time=00:00:02.62 bitrate=1598.0kbits/s speed=0.104x elapsed=0:00:25.27    \nframe=  323 fps= 13 q=47.5 size=     512KiB time=00:00:02.67 bitrate=1568.1kbits/s speed=0.104x elapsed=0:00:25.78    \nframe=  328 fps= 12 q=49.4 size=     512KiB time=00:00:02.71 bitrate=1544.0kbits/s speed=0.103x elapsed=0:00:26.30    \nframe=  333 fps= 12 q=49.5 size=     512KiB time=00:00:02.75 bitrate=1520.7kbits/s speed=0.103x elapsed=0:00:26.81    \nframe=  339 fps= 12 q=45.8 size=     512KiB time=00:00:02.80 bitrate=1493.6kbits/s speed=0.103x elapsed=0:00:27.33    \nframe=  346 fps= 12 q=42.5 size=     512KiB time=00:00:02.86 bitrate=1463.3kbits/s speed=0.103x elapsed=0:00:27.85    \nframe=  353 fps= 12 q=41.7 size=     768KiB time=00:00:02.92 bitrate=2151.0kbits/s speed=0.103x elapsed=0:00:28.36    \nframe=  359 fps= 12 q=41.3 size=     768KiB time=00:00:02.97 bitrate=2114.9kbits/s speed=0.103x elapsed=0:00:28.88    \nframe=  365 fps= 12 q=46.8 size=     768KiB time=00:00:03.02 bitrate=2079.9kbits/s speed=0.103x elapsed=0:00:29.38    \nframe=  372 fps= 12 q=44.6 size=     768KiB time=00:00:03.08 bitrate=2040.6kbits/s speed=0.103x elapsed=0:00:29.90    \nframe=  378 fps= 12 q=41.4 size=     768KiB time=00:00:03.13 bitrate=2008.0kbits/s speed=0.103x elapsed=0:00:30.43    \nframe=  384 fps= 12 q=41.3 size=     768KiB time=00:00:03.18 bitrate=1976.5kbits/s speed=0.103x elapsed=0:00:30.94    \nframe=  390 fps= 12 q=47.0 size=     768KiB time=00:00:03.23 bitrate=1945.9kbits/s speed=0.103x elapsed=0:00:31.46    \nframe=  396 fps= 12 q=41.3 size=     768KiB time=00:00:03.28 bitrate=1916.3kbits/s speed=0.103x elapsed=0:00:31.96    \nframe=  401 fps= 12 q=46.5 size=     768KiB time=00:00:03.32 bitrate=1892.3kbits/s speed=0.102x elapsed=0:00:32.49    \nframe=  407 fps= 12 q=43.5 size=     768KiB time=00:00:03.37 bitrate=1864.2kbits/s speed=0.102x elapsed=0:00:32.99    \nframe=  412 fps= 12 q=45.6 size=     768KiB time=00:00:03.41 bitrate=1841.5kbits/s speed=0.102x elapsed=0:00:33.52    \nframe=  418 fps= 12 q=46.1 size=     768KiB time=00:00:03.46 bitrate=1814.9kbits/s speed=0.102x elapsed=0:00:34.02    \nframe=  423 fps= 12 q=44.5 size=     768KiB time=00:00:03.50 bitrate=1793.4kbits/s speed=0.102x elapsed=0:00:34.54    \nframe=  429 fps= 12 q=43.9 size=     768KiB time=00:00:03.55 bitrate=1768.2kbits/s speed=0.101x elapsed=0:00:35.06    \nframe=  435 fps= 12 q=43.2 size=     768KiB time=00:00:03.60 bitrate=1743.7kbits/s speed=0.101x elapsed=0:00:35.57    \nframe=  440 fps= 12 q=46.2 size=     768KiB time=00:00:03.65 bitrate=1723.8kbits/s speed=0.101x elapsed=0:00:36.09    \nframe=  445 fps= 12 q=43.7 size=     768KiB time=00:00:03.69 bitrate=1704.3kbits/s speed=0.101x elapsed=0:00:36.61    \nframe=  451 fps= 12 q=43.9 size=     768KiB time=00:00:03.74 bitrate=1681.6kbits/s speed=0.101x elapsed=0:00:37.12    \nframe=  456 fps= 12 q=40.9 size=     768KiB time=00:00:03.78 bitrate=1663.0kbits/s speed= 0.1x elapsed=0:00:37.64    \nframe=  462 fps= 12 q=45.7 size=     768KiB time=00:00:03.83 bitrate=1641.3kbits/s speed= 0.1x elapsed=0:00:38.16    \nframe=  467 fps= 12 q=43.9 size=     768KiB time=00:00:03.87 bitrate=1623.7kbits/s speed= 0.1x elapsed=0:00:38.67    \nframe=  473 fps= 12 q=43.7 size=     768KiB time=00:00:03.92 bitrate=1603.0kbits/s speed= 0.1x elapsed=0:00:39.18    \nframe=  480 fps= 12 q=44.9 size=     768KiB time=00:00:03.98 bitrate=1579.5kbits/s speed= 0.1x elapsed=0:00:39.70    \nframe=  486 fps= 12 q=44.8 size=     768KiB time=00:00:04.03 bitrate=1560.0kbits/s speed= 0.1x elapsed=0:00:40.22    \nframe=  492 fps= 12 q=43.9 size=     768KiB time=00:00:04.08 bitrate=1540.9kbits/s speed= 0.1x elapsed=0:00:40.73    \nframe=  499 fps= 12 q=45.3 size=     768KiB time=00:00:04.14 bitrate=1519.1kbits/s speed= 0.1x elapsed=0:00:41.25    \nframe=  506 fps= 12 q=42.8 size=    1024KiB time=00:00:04.20 bitrate=1997.4kbits/s speed=0.101x elapsed=0:00:41.76    \nframe=  512 fps= 12 q=40.3 size=    1024KiB time=00:00:04.25 bitrate=1973.9kbits/s speed=0.101x elapsed=0:00:42.28    \nframe=  518 fps= 12 q=43.5 size=    1024KiB time=00:00:04.30 bitrate=1950.9kbits/s speed= 0.1x elapsed=0:00:42.80    \nframe=  524 fps= 12 q=42.6 size=    1024KiB time=00:00:04.35 bitrate=1928.5kbits/s speed= 0.1x elapsed=0:00:43.31    \nframe=  531 fps= 12 q=42.2 size=    1024KiB time=00:00:04.40 bitrate=1903.0kbits/s speed=0.101x elapsed=0:00:43.83    \nframe=  538 fps= 12 q=40.9 size=    1024KiB time=00:00:04.46 bitrate=1878.1kbits/s speed=0.101x elapsed=0:00:44.34    \nframe=  543 fps= 12 q=41.5 size=    1024KiB time=00:00:04.50 bitrate=1860.8kbits/s speed= 0.1x elapsed=0:00:44.86    \nframe=  550 fps= 12 q=40.5 size=    1024KiB time=00:00:04.56 bitrate=1837.0kbits/s speed=0.101x elapsed=0:00:45.38    \nframe=  556 fps= 12 q=42.1 size=    1024KiB time=00:00:04.61 bitrate=1817.1kbits/s speed=0.101x elapsed=0:00:45.89    \nframe=  563 fps= 12 q=41.4 size=    1024KiB time=00:00:04.67 bitrate=1794.4kbits/s speed=0.101x elapsed=0:00:46.41    \nframe=  569 fps= 12 q=43.3 size=    1024KiB time=00:00:04.72 bitrate=1775.4kbits/s speed=0.101x elapsed=0:00:46.92    \nframe=  574 fps= 12 q=38.8 size=    1024KiB time=00:00:04.76 bitrate=1759.9kbits/s speed= 0.1x elapsed=0:00:47.44    \nframe=  581 fps= 12 q=43.3 size=    1024KiB time=00:00:04.82 bitrate=1738.6kbits/s speed=0.101x elapsed=0:00:47.95    \nframe=  587 fps= 12 q=39.1 size=    1024KiB time=00:00:04.87 bitrate=1720.8kbits/s speed=0.101x elapsed=0:00:48.47    \nframe=  593 fps= 12 q=43.3 size=    1024KiB time=00:00:04.92 bitrate=1703.3kbits/s speed=0.101x elapsed=0:00:48.99    \n[mp4 @ 000002c1a5927b80] Starting second pass: moving the moov atom to the beginning of the file\n[out#0/mp4 @ 000002c1a5927a80] video:1209KiB audio:0KiB subtitle:0KiB other streams:0KiB global headers:2KiB muxing overhead: 0.893067%\nframe=  600 fps= 12 q=43.1 Lsize=    1220KiB time=00:00:04.98 bitrate=2005.7kbits/s speed=0.101x elapsed=0:00:49.40    \nx265 [info]: frame I:      3, Avg QP:41.00  kb/s: 7737.92 \nx265 [info]: frame P:    165, Avg QP:39.76  kb/s: 4130.72 \nx265 [info]: frame B:    432, Avg QP:44.27  kb/s: 1115.04 \nx265 [info]: Weighted P-Frames: Y:0.0% UV:0.0%\n\nencoded 600 frames in 49.35s (12.16 fps), 1977.47 kb/s, Avg QP:43.01\n",
  "seconds": 49.49224853515625,
  "probe_out": {}
}